<svg width="37" height="38" viewBox="0 0 37 38" fill="none" xmlns="http://www.w3.org/2000/svg">
<path d="M6.18091 8.60909C6.18091 7.76222 6.86744 7.07568 7.71431 7.07568H13.8479C14.6948 7.07568 15.3813 7.76222 15.3813 8.60909V14.7427C15.3813 15.5896 14.6948 16.2761 13.8479 16.2761H7.71431C6.86744 16.2761 6.18091 15.5896 6.18091 14.7427V8.60909Z" stroke="white" stroke-width="3.06681" stroke-linecap="round" stroke-linejoin="round"/>
<path d="M6.18091 23.9433C6.18091 23.0964 6.86744 22.4099 7.71431 22.4099H13.8479C14.6948 22.4099 15.3813 23.0964 15.3813 23.9433V30.0769C15.3813 30.9238 14.6948 31.6103 13.8479 31.6103H7.71431C6.86744 31.6103 6.18091 30.9238 6.18091 30.0769V23.9433Z" stroke="white" stroke-width="3.06681" stroke-linecap="round" stroke-linejoin="round"/>
<path d="M21.5151 8.60909C21.5151 7.76222 22.2016 7.07568 23.0485 7.07568H29.1822C30.0291 7.07568 30.7156 7.76222 30.7156 8.60909V14.7427C30.7156 15.5896 30.0291 16.2761 29.1822 16.2761H23.0485C22.2016 16.2761 21.5151 15.5896 21.5151 14.7427V8.60909Z" stroke="white" stroke-width="3.06681" stroke-linecap="round" stroke-linejoin="round"/>
<path d="M21.5151 23.9433C21.5151 23.0964 22.2016 22.4099 23.0485 22.4099H29.1822C30.0291 22.4099 30.7156 23.0964 30.7156 23.9433V30.0769C30.7156 30.9238 30.0291 31.6103 29.1822 31.6103H23.0485C22.2016 31.6103 21.5151 30.9238 21.5151 30.0769V23.9433Z" stroke="white" stroke-width="3.06681" stroke-linecap="round" stroke-linejoin="round"/>
</svg>
