<svg width="38" height="37" viewBox="0 0 38 37" fill="none" xmlns="http://www.w3.org/2000/svg">
<g clip-path="url(#clip0_249_13574)">
<path d="M27.0839 0.0758057L5.4817 21.678L0.57959 36.7417L15.6769 31.673L17.7327 29.6173C16.826 29.4386 15.0842 29.0722 15.0352 29.0619L15.0022 29.0949L8.23464 22.1779L27.0839 3.32866L33.9261 10.1709L29.5682 14.5289L29.9378 17.4122L37.179 10.1709L27.0839 0.0758057ZM26.4082 15.0224C25.391 15.0224 25.2624 15.0303 25.1307 15.1009C24.8727 15.2393 24.846 15.3476 24.7442 16.6635C24.6934 17.3201 24.6343 17.8786 24.613 17.9047C24.5917 17.9308 24.4163 17.9965 24.2231 18.0506C23.668 18.206 23.1467 18.4155 22.5776 18.7123C22.2879 18.8633 22.0276 18.987 21.9992 18.987C21.9708 18.987 21.5746 18.6686 21.119 18.2794C20.096 17.4053 20.0671 17.3833 19.8958 17.3469C19.6503 17.2949 19.4457 17.4411 18.6615 18.23C17.8916 19.0045 17.7679 19.1807 17.8203 19.4284C17.8556 19.5949 17.8832 19.631 18.7515 20.6451C19.1409 21.0997 19.4594 21.4957 19.4594 21.525C19.4594 21.5544 19.3359 21.8154 19.1848 22.1051C18.8881 22.6742 18.6783 23.1954 18.523 23.7506C18.4689 23.9438 18.4033 24.1194 18.3772 24.1407C18.3511 24.162 17.7926 24.2209 17.1361 24.2717C15.8201 24.3735 15.7116 24.4003 15.5732 24.6584C15.5026 24.7901 15.4947 24.9187 15.4947 25.9359C15.4947 26.9531 15.5026 27.0817 15.5732 27.2133C15.7113 27.4707 15.8216 27.4982 17.1147 27.5975C17.7595 27.6471 18.3161 27.6963 18.3517 27.7068C18.3917 27.7186 18.4553 27.8684 18.5183 28.099C18.6716 28.6608 18.8797 29.1814 19.1848 29.7664C19.3359 30.0562 19.4594 30.3173 19.4594 30.3467C19.4594 30.376 19.1552 30.7553 18.7835 31.1895C17.7112 32.4419 17.7157 32.4344 17.8784 32.7704C18.007 33.0362 19.4286 34.4328 19.6407 34.5018C19.9106 34.5897 20.0368 34.5132 21.0457 33.65L21.9837 32.8477L22.5014 33.1198C23.1242 33.4471 23.7547 33.7018 24.2497 33.826C24.4953 33.8876 24.6221 33.9405 24.6362 33.9873C24.6478 34.0257 24.6975 34.5846 24.7469 35.2294C24.846 36.5225 24.8734 36.6328 25.1307 36.7708C25.2624 36.8414 25.391 36.8493 26.4082 36.8493C27.4254 36.8493 27.554 36.8414 27.6857 36.7708C27.943 36.6328 27.9705 36.5225 28.0695 35.2294C28.1189 34.5846 28.1686 34.0266 28.1798 33.9893C28.1934 33.9443 28.3472 33.8821 28.6364 33.8046C29.1764 33.6599 29.6547 33.4653 30.2767 33.1374C30.5403 32.9984 30.7815 32.8847 30.8126 32.8847C30.8436 32.8847 31.2418 33.2033 31.6974 33.5925C32.153 33.9818 32.589 34.3492 32.6663 34.4091C32.8661 34.5637 33.1188 34.5632 33.3432 34.4076C33.6293 34.2094 34.8853 32.9106 34.9571 32.7388C35.0793 32.4463 35.0343 32.3674 34.1624 31.3445C33.7195 30.8249 33.357 30.3736 33.357 30.3417C33.357 30.3097 33.4707 30.068 33.6097 29.8044C33.9376 29.1824 34.1322 28.7041 34.2769 28.1641C34.3544 27.8749 34.4167 27.7208 34.4616 27.7073C34.4989 27.6961 35.0569 27.6465 35.7017 27.5972C36.9949 27.4981 37.1051 27.4707 37.2432 27.2133C37.3138 27.0817 37.3217 26.9531 37.3217 25.9359C37.3217 24.9187 37.3138 24.7901 37.2432 24.6584C37.1047 24.4002 36.9967 24.3735 35.6805 24.2724C34.8885 24.2116 34.4679 24.1626 34.4307 24.1269C34.3999 24.0972 34.3375 23.9275 34.292 23.7499C34.1677 23.2647 33.9381 22.6926 33.6318 22.1051C33.4807 21.8154 33.357 21.5533 33.357 21.5227C33.357 21.4921 33.7098 21.0551 34.1409 20.5516C34.9851 19.5656 35.0621 19.4377 34.9743 19.1681C34.9057 18.9574 33.5086 17.5346 33.2449 17.4069C32.9282 17.2536 32.8691 17.2857 31.816 18.1814C31.2951 18.6245 30.8458 18.987 30.8174 18.987C30.789 18.987 30.5278 18.8628 30.237 18.711C29.6676 18.4138 29.0032 18.1497 28.5078 18.0237C28.3183 17.9755 28.1911 17.9196 28.1793 17.8797C28.1687 17.8439 28.1196 17.2871 28.07 16.6423C27.9707 15.3493 27.9431 15.239 27.6857 15.1009C27.554 15.0303 27.4254 15.0224 26.4082 15.0224ZM26.5167 21.1694C27.5336 21.1903 28.5438 21.5369 29.3883 22.2126C30.8722 23.3998 31.4933 25.31 31.01 27.2C30.8869 27.6816 30.4748 28.4884 30.1358 28.9113C29.3656 29.8721 28.2721 30.4892 27.0264 30.6664C26.7536 30.7051 26.0938 30.7184 25.9394 30.6881C25.9042 30.6812 25.7316 30.6522 25.5557 30.6236C24.9589 30.5266 24.2871 30.2545 23.7438 29.8897C22.2572 28.8915 21.4299 27.0608 21.6777 25.3177C21.8405 24.1724 22.4328 23.0643 23.2648 22.3482C24.2033 21.5405 25.3643 21.1458 26.5167 21.1694ZM7.00085 24.4482L12.7775 30.2248L7.25602 32.0908L5.19041 30.0254L7.00085 24.4482Z" fill="white"/>
</g>
<defs>
<clipPath id="clip0_249_13574">
<rect width="36.8018" height="36.8018" fill="white" transform="translate(0.478516 0.0078125)"/>
</clipPath>
</defs>
</svg>
