<svg width="37" height="38" viewBox="0 0 37 38" fill="none" xmlns="http://www.w3.org/2000/svg">
<g clip-path="url(#clip0_249_13603)">
<path d="M28.7293 13.4985C28.1353 14.3704 26.8741 14.3704 26.2801 13.4985C25.95 13.0142 25.95 12.3481 26.2801 11.8638C26.8741 10.992 28.1353 10.992 28.7293 11.8638C29.0594 12.3481 29.0594 13.0142 28.7293 13.4985ZM32.0942 16.8083C31.5002 17.6801 30.239 17.6801 29.6451 16.8083C29.315 16.324 29.315 15.6579 29.6451 15.1736C30.239 14.3017 31.5002 14.3017 32.0942 15.1736C32.4243 15.6579 32.4243 16.324 32.0942 16.8083ZM25.2907 16.8083C24.6968 17.6801 23.4356 17.6801 22.8416 16.8083C22.5115 16.324 22.5115 15.6579 22.8416 15.1736C23.4356 14.3017 24.6968 14.3017 25.2907 15.1736C25.6208 15.6579 25.6208 16.324 25.2907 16.8083ZM28.7293 20.2284C28.1353 21.1003 26.8741 21.1003 26.2801 20.2284C25.95 19.7441 25.95 19.078 26.2801 18.5937C26.8741 17.7218 28.1353 17.7218 28.7293 18.5937C29.0594 19.078 29.0594 19.7441 28.7293 20.2284ZM12.9923 16.0461C12.9923 14.1407 11.4475 12.596 9.54211 12.596C7.63672 12.596 6.09194 14.1407 6.09194 16.0461C6.09194 17.9515 7.63672 19.4963 9.54211 19.4963C11.4475 19.4963 12.9923 17.9515 12.9923 16.0461ZM14.4643 16.0461C14.4643 18.7645 12.2605 20.9684 9.54211 20.9684C6.82374 20.9684 4.61987 18.7645 4.61987 16.0461C4.61987 13.3278 6.82374 11.1239 9.54211 11.1239C12.2605 11.1239 14.4643 13.3278 14.4643 16.0461Z" fill="white"/>
<path d="M35.3769 26.7961C35.3642 29.0241 33.5534 30.8267 31.3214 30.8267C29.8839 30.8267 28.5775 30.0738 27.8475 28.8663C27.6372 28.5185 27.1846 28.407 26.8368 28.6173C26.4889 28.8277 26.3774 29.2801 26.5878 29.628C27.5818 31.2721 29.3633 32.2988 31.3214 32.2988C34.3742 32.2988 36.849 29.8246 36.849 26.7726L36.804 26.0716L35.3436 15.9627C34.4996 10.1296 29.4985 5.80151 23.6026 5.80151H16.8432C16.4367 5.80151 16.1072 6.13104 16.1072 6.53755C16.1072 6.94406 16.4367 7.27358 16.8432 7.27358H23.6026C28.767 7.27358 33.1475 11.0646 33.8867 16.1735L35.337 26.1978L35.3769 26.7961V26.7961Z" fill="white"/>
<path d="M18.4449 25.3647C21.6983 25.3647 24.6855 26.9421 26.5336 29.545C26.7689 29.8765 27.2284 29.9544 27.5599 29.7191C27.8913 29.4837 27.9692 29.0242 27.7339 28.6928C25.6126 25.7051 22.1803 23.8927 18.4449 23.8927C18.0384 23.8927 17.7088 24.2222 17.7088 24.6287C17.7088 25.0352 18.0384 25.3647 18.4449 25.3647ZM1.55945 26.1978L3.00978 16.1735C3.74901 11.0646 8.12947 7.27358 13.2939 7.27358H20.0533C20.4598 7.27358 20.7893 6.94406 20.7893 6.53755C20.7893 6.13104 20.4598 5.80151 20.0533 5.80151H13.2939C7.39799 5.80151 2.39687 10.1296 1.55288 15.9627L0.0984535 26.0151L0.0490731 26.7237C0.0474558 29.8246 2.5223 32.2988 5.57509 32.2988C7.53316 32.2988 9.31467 31.2721 10.3087 29.628C10.519 29.2802 10.4075 28.8277 10.0597 28.6173C9.71183 28.407 9.25932 28.5185 9.04901 28.8664C8.31894 30.0739 7.01258 30.8267 5.57509 30.8267C3.34308 30.8267 1.53225 29.0242 1.5196 26.7961L1.55945 26.1978Z" fill="white"/>
<path d="M18.4516 23.8926C14.7162 23.8926 11.2839 25.705 9.16255 28.6927C8.92722 29.0242 9.00514 29.4836 9.33661 29.719C9.66808 29.9543 10.1275 29.8764 10.3629 29.5449C12.211 26.942 15.1982 25.3646 18.4516 25.3646C18.8581 25.3646 19.1876 25.0351 19.1876 24.6286C19.1876 24.2221 18.8581 23.8926 18.4516 23.8926Z" fill="white"/>
</g>
<defs>
<clipPath id="clip0_249_13603">
<rect width="36.8018" height="36.8018" fill="white" transform="translate(0.0473633 0.64917)"/>
</clipPath>
</defs>
</svg>
