<svg width="743" height="418" viewBox="0 0 743 418" fill="none" xmlns="http://www.w3.org/2000/svg">
<path d="M251.974 105.169V93.6206C251.974 92.4906 251.048 91.5758 249.907 91.5758H246.901C246.022 91.5758 245.242 90.9842 245.045 90.1359C244.005 85.6517 242.233 81.4436 239.843 77.6512C239.366 76.8941 239.457 75.9184 240.094 75.2875L242.207 73.1975C243.015 72.3987 243.015 71.1041 242.207 70.3053L233.951 62.1403C233.143 61.3415 231.834 61.3415 231.026 62.1403L228.915 64.2281C228.277 64.859 227.291 64.948 226.525 64.4759C222.69 62.111 218.434 60.3568 213.897 59.3259C213.039 59.131 212.442 58.3615 212.442 57.4917V54.5286C212.442 53.3985 211.516 52.4836 210.374 52.4836H198.697C197.554 52.4836 196.629 53.3996 196.629 54.5286V57.4917C196.629 58.3615 196.031 59.1321 195.173 59.327C190.636 60.3568 186.379 62.111 182.544 64.4759C181.778 64.948 180.792 64.859 180.154 64.2281L178.045 62.1426C177.237 61.3438 175.928 61.3438 175.12 62.1426L166.864 70.3076C166.056 71.1064 166.056 72.4009 166.864 73.1997L168.975 75.2875C169.613 75.9184 169.703 76.8941 169.226 77.6512C166.836 81.4447 165.064 85.654 164.023 90.1381C163.826 90.9865 163.047 91.578 162.167 91.578H159.165C158.022 91.578 157.097 92.494 157.097 93.6229V105.171C157.097 106.301 158.023 107.216 159.165 107.216H162.168C163.047 107.216 163.827 107.808 164.023 108.655C165.065 113.14 166.838 117.349 169.227 121.14C169.704 121.897 169.614 122.872 168.976 123.503L166.862 125.594C166.054 126.393 166.054 127.688 166.862 128.487L175.118 136.653C175.926 137.452 177.236 137.452 178.043 136.653L180.158 134.56C180.796 133.93 181.783 133.841 182.547 134.312C186.381 136.673 190.635 138.423 195.171 139.452C196.029 139.647 196.627 140.417 196.627 141.288V144.267C196.627 145.397 197.553 146.312 198.695 146.312H210.372C211.515 146.312 212.44 145.396 212.44 144.267V141.288C212.44 140.417 213.038 139.647 213.896 139.452C218.43 138.424 222.684 136.673 226.517 134.312C227.283 133.841 228.269 133.93 228.906 134.56L231.023 136.654C231.831 137.453 233.141 137.453 233.947 136.654L242.204 128.488C243.012 127.689 243.012 126.393 242.204 125.596L240.088 123.504C239.45 122.874 239.36 121.898 239.838 121.141C242.227 117.349 243.998 113.142 245.039 108.657C245.237 107.809 246.015 107.217 246.895 107.217H249.903C251.048 107.214 251.974 106.298 251.974 105.169ZM204.532 131.955C186.348 131.955 171.627 117.368 171.627 99.3847C171.627 81.429 186.348 66.8431 204.532 66.8431C222.717 66.8431 237.438 81.4301 237.438 99.3847C237.438 117.369 222.717 131.955 204.532 131.955Z" stroke="#DEE3FC" stroke-width="0.89958" stroke-miterlimit="10"/>
<path d="M305.681 144.26V136.39C305.681 135.62 305.05 134.996 304.272 134.996H302.224C301.623 134.996 301.093 134.593 300.959 134.015C300.25 130.959 299.043 128.091 297.414 125.506C297.089 124.99 297.15 124.326 297.584 123.896L299.025 122.472C299.575 121.928 299.575 121.046 299.025 120.5L293.398 114.936C292.847 114.392 291.955 114.392 291.404 114.936L289.965 116.359C289.53 116.789 288.858 116.849 288.336 116.528C285.722 114.916 282.822 113.72 279.731 113.018C279.146 112.885 278.74 112.361 278.74 111.768V109.749C278.74 108.979 278.108 108.355 277.33 108.355H269.372C268.594 108.355 267.963 108.979 267.963 109.749V111.768C267.963 112.36 267.555 112.885 266.971 113.018C263.879 113.72 260.977 114.916 258.363 116.527C257.842 116.848 257.169 116.787 256.734 116.358L255.298 114.937C254.747 114.393 253.855 114.393 253.304 114.937L247.677 120.502C247.127 121.046 247.127 121.928 247.677 122.473L249.116 123.896C249.55 124.326 249.611 124.991 249.287 125.507C247.658 128.092 246.45 130.962 245.741 134.017C245.607 134.595 245.077 134.999 244.477 134.999H242.431C241.652 134.999 241.021 135.623 241.021 136.392V144.262C241.021 145.032 241.652 145.656 242.431 145.656H244.478C245.077 145.656 245.608 146.059 245.742 146.637C246.452 149.694 247.661 152.562 249.289 155.146C249.614 155.662 249.552 156.326 249.118 156.757L247.678 158.182C247.128 158.726 247.128 159.608 247.678 160.153L253.305 165.717C253.855 166.261 254.748 166.261 255.299 165.717L256.741 164.291C257.175 163.862 257.848 163.8 258.369 164.122C260.982 165.731 263.881 166.924 266.972 167.625C267.556 167.758 267.964 168.281 267.964 168.875V170.906C267.964 171.675 268.595 172.299 269.373 172.299H277.331C278.11 172.299 278.741 171.675 278.741 170.906V168.875C278.741 168.281 279.149 167.758 279.733 167.625C282.823 166.924 285.722 165.731 288.335 164.122C288.856 163.801 289.529 163.862 289.963 164.291L291.405 165.718C291.955 166.262 292.848 166.262 293.399 165.718L299.026 160.154C299.576 159.61 299.576 158.726 299.026 158.182L297.583 156.757C297.148 156.328 297.087 155.662 297.412 155.146C299.04 152.562 300.248 149.695 300.958 146.638C301.092 146.06 301.622 145.657 302.222 145.657H304.272C305.05 145.655 305.681 145.03 305.681 144.26ZM273.351 161.263C261.658 161.263 252.192 151.884 252.192 140.32C252.192 128.774 261.658 119.394 273.351 119.394C285.044 119.394 294.511 128.774 294.511 140.32C294.511 151.884 285.044 161.263 273.351 161.263Z" fill="#DEE3FC"/>
<path d="M155.827 352.635C157.957 352.635 159.684 350.927 159.684 348.821C159.684 346.714 157.957 345.006 155.827 345.006C153.696 345.006 151.969 346.714 151.969 348.821C151.969 350.927 153.696 352.635 155.827 352.635Z" fill="#A4AFFF"/>
<path d="M672.642 248.395C674.773 248.395 676.5 246.687 676.5 244.58C676.5 242.473 674.773 240.765 672.642 240.765C670.512 240.765 668.785 242.473 668.785 244.58C668.785 246.687 670.512 248.395 672.642 248.395Z" fill="#A4AFFF"/>
<path d="M664.927 112.17C667.058 112.17 668.785 110.462 668.785 108.355C668.785 106.248 667.058 104.54 664.927 104.54C662.797 104.54 661.07 106.248 661.07 108.355C661.07 110.462 662.797 112.17 664.927 112.17Z" fill="#A4AFFF"/>
<path d="M526.226 64.4465C527.563 64.4465 528.646 63.3751 528.646 62.0535C528.646 60.7318 527.563 59.6604 526.226 59.6604C524.89 59.6604 523.806 60.7318 523.806 62.0535C523.806 63.3751 524.89 64.4465 526.226 64.4465Z" fill="#A4AFFF"/>
<path d="M170.929 30.1765C170.929 31.4981 169.846 32.5695 168.509 32.5695C167.173 32.5695 166.09 31.4981 166.09 30.1765C166.09 28.8549 167.173 27.7834 168.509 27.7834C169.846 27.7834 170.929 28.8549 170.929 30.1765Z" fill="#A4AFFF"/>
<path d="M224.487 177.54C224.487 178.862 223.403 179.933 222.067 179.933C220.73 179.933 219.647 178.862 219.647 177.54C219.647 176.219 220.73 175.147 222.067 175.147C223.403 175.147 224.487 176.219 224.487 177.54Z" fill="#A4AFFF"/>
<path d="M135.713 352.636C135.713 353.958 134.629 355.029 133.293 355.029C131.956 355.029 130.873 353.958 130.873 352.636C130.873 351.315 131.956 350.243 133.293 350.243C134.629 350.243 135.713 351.315 135.713 352.636Z" fill="#A4AFFF"/>
<path d="M616.053 354.89C618.184 354.89 619.911 353.182 619.911 351.075C619.911 348.968 618.184 347.26 616.053 347.26C613.923 347.26 612.196 348.968 612.196 351.075C612.196 353.182 613.923 354.89 616.053 354.89Z" fill="#A4AFFF"/>
<path d="M698.082 354.89C700.212 354.89 701.939 353.182 701.939 351.075C701.939 348.968 700.212 347.26 698.082 347.26C695.951 347.26 694.224 348.968 694.224 351.075C694.224 353.182 695.951 354.89 698.082 354.89Z" fill="#A4AFFF"/>
<path d="M237.438 23.5886C239.569 23.5886 241.296 21.8806 241.296 19.7737C241.296 17.6667 239.569 15.9587 237.438 15.9587C235.308 15.9587 233.581 17.6667 233.581 19.7737C233.581 21.8806 235.308 23.5886 237.438 23.5886Z" fill="#A4AFFF"/>
<path d="M503.605 193.348C503.605 196.167 501.293 198.453 498.443 198.453C495.592 198.453 493.281 196.168 493.281 193.348C493.281 190.528 495.591 188.243 498.443 188.243C501.294 188.243 503.605 190.529 503.605 193.348Z" fill="#A4AFFF"/>
<path d="M122.894 130.225C122.894 133.044 120.583 135.33 117.732 135.33C114.881 135.33 112.57 133.044 112.57 130.225C112.57 127.406 114.88 125.12 117.732 125.12C120.583 125.121 122.894 127.406 122.894 130.225Z" fill="#A4AFFF"/>
<path d="M108.37 54.0281H101.878C101.46 54.0281 101.122 53.6935 101.122 53.28V46.8614C101.122 46.4479 101.46 46.1133 101.878 46.1133H108.37C108.788 46.1133 109.126 46.4479 109.126 46.8614V53.28C109.126 53.6935 108.788 54.0281 108.37 54.0281Z" fill="#7E89FD"/>
<path d="M119.077 54.0281H112.585C112.167 54.0281 111.829 53.6935 111.829 53.28V46.8614C111.829 46.4479 112.167 46.1133 112.585 46.1133H119.077C119.495 46.1133 119.833 46.4479 119.833 46.8614V53.28C119.833 53.6935 119.495 54.0281 119.077 54.0281Z" fill="#7E89FD"/>
<path d="M129.784 54.0281H123.293C122.875 54.0281 122.537 53.6935 122.537 53.28V46.8614C122.537 46.4479 122.875 46.1133 123.293 46.1133H129.784C130.202 46.1133 130.54 46.4479 130.54 46.8614V53.28C130.54 53.6935 130.202 54.0281 129.784 54.0281Z" fill="#7E89FD"/>
<path d="M653.608 332.015H647.116C646.698 332.015 646.36 331.681 646.36 331.267V324.849C646.36 324.435 646.698 324.101 647.116 324.101H653.608C654.026 324.101 654.364 324.435 654.364 324.849V331.267C654.364 331.681 654.026 332.015 653.608 332.015Z" fill="#DEE3FC"/>
<path d="M664.315 332.015H657.823C657.405 332.015 657.067 331.681 657.067 331.267V324.849C657.067 324.435 657.405 324.101 657.823 324.101H664.315C664.733 324.101 665.072 324.435 665.072 324.849V331.267C665.072 331.681 664.733 332.015 664.315 332.015Z" fill="#DEE3FC"/>
<path d="M675.022 332.015H668.53C668.112 332.015 667.774 331.681 667.774 331.267V324.849C667.774 324.435 668.112 324.101 668.53 324.101H675.022C675.44 324.101 675.778 324.435 675.778 324.849V331.267C675.778 331.681 675.44 332.015 675.022 332.015Z" fill="#DEE3FC"/>
<path d="M158.628 327.677H152.136C151.718 327.677 151.38 327.343 151.38 326.929V320.511C151.38 320.097 151.718 319.762 152.136 319.762H158.628C159.046 319.762 159.385 320.097 159.385 320.511V326.929C159.385 327.342 159.045 327.677 158.628 327.677Z" fill="#DEE3FC"/>
<path d="M169.334 327.677H162.842C162.424 327.677 162.086 327.343 162.086 326.929V320.511C162.086 320.097 162.424 319.762 162.842 319.762H169.334C169.752 319.762 170.091 320.097 170.091 320.511V326.929C170.091 327.342 169.752 327.677 169.334 327.677Z" fill="#DEE3FC"/>
<path d="M180.041 327.677H173.55C173.132 327.677 172.794 327.343 172.794 326.929V320.511C172.794 320.097 173.132 319.762 173.55 319.762H180.041C180.459 319.762 180.797 320.097 180.797 320.511V326.929C180.797 327.342 180.459 327.677 180.041 327.677Z" fill="#DEE3FC"/>
<path d="M448.807 395.712H294.659C281.226 395.712 270.336 384.944 270.336 371.659V32.3487C270.336 19.0641 281.226 8.29541 294.659 8.29541H448.807C462.24 8.29541 473.129 19.0641 473.129 32.3487V371.659C473.129 384.944 462.24 395.712 448.807 395.712Z" fill="#3945BA"/>
<path d="M448.027 390.205H295.438C283.672 390.205 274.134 380.773 274.134 369.137V32.7555C274.134 21.1193 283.672 11.6868 295.438 11.6868H448.028C459.795 11.6868 469.333 21.1193 469.333 32.7555V369.137C469.332 380.773 459.794 390.205 448.027 390.205Z" fill="white"/>
<path d="M460.787 32.0958V368.086C460.787 375.966 454.327 382.354 446.359 382.354H297.106C289.138 382.354 282.678 375.966 282.678 368.086V32.0958C282.678 24.2159 289.138 17.8276 297.106 17.8276H321.995C323.375 17.8276 324.639 18.5994 325.258 19.8207L327.901 25.0383C329.105 27.446 331.591 28.9535 334.294 28.9535H409.171C411.874 28.9535 414.36 27.446 415.564 25.0383L418.207 19.8207C418.826 18.5994 420.088 17.8276 421.47 17.8276H446.359C454.327 17.8276 460.787 24.2147 460.787 32.0958Z" fill="#DEE3FC"/>
<path d="M403.155 22.8491H342.848C341.446 22.8491 340.309 21.7247 340.309 20.3378C340.309 18.9508 341.446 17.8264 342.848 17.8264H403.155C404.558 17.8264 405.695 18.9508 405.695 20.3378C405.695 21.7247 404.558 22.8491 403.155 22.8491Z" fill="#DEE3FC"/>
<path d="M437.095 370.692H302.896C297.623 370.692 293.35 366.466 293.35 361.252V314.391C293.35 309.177 297.623 304.951 302.896 304.951H437.095C442.367 304.951 446.641 309.177 446.641 314.391V361.252C446.641 366.466 442.367 370.692 437.095 370.692Z" stroke="#698BD1" stroke-width="1.13929" stroke-miterlimit="10" stroke-linecap="round" stroke-linejoin="round" stroke-dasharray="3.23 3.23"/>
<path d="M430.293 209.369H363.721C359.918 209.369 356.835 206.32 356.835 202.559V170.021C356.835 166.26 359.918 163.211 363.721 163.211H430.293C434.096 163.211 437.179 166.26 437.179 170.021V202.559C437.179 206.32 434.096 209.369 430.293 209.369Z" stroke="#698BD1" stroke-width="1.13929" stroke-miterlimit="10" stroke-linecap="round" stroke-linejoin="round" stroke-dasharray="3.23 3.23"/>
<path d="M444.625 294.016H307.134C302.603 294.016 298.93 290.383 298.93 285.903V228.554C298.93 224.073 302.603 220.441 307.134 220.441H444.625C449.156 220.441 452.829 224.073 452.829 228.554V285.903C452.829 290.383 449.156 294.016 444.625 294.016Z" fill="#4B5A9B"/>
<path d="M446.641 222.589V279.97C446.641 284.443 442.972 288.06 438.449 288.06H301.541C297.018 288.06 293.35 284.443 293.35 279.97V222.589C293.35 218.116 297.018 214.488 301.541 214.488H438.449C442.972 214.488 446.641 218.116 446.641 222.589Z" fill="#7F95F4"/>
<path d="M346.304 282.08H305.97C302.911 282.08 300.432 279.629 300.432 276.604V236.716C300.432 233.692 302.911 231.239 305.97 231.239H346.304C349.363 231.239 351.842 233.691 351.842 236.716V276.604C351.842 279.629 349.363 282.08 346.304 282.08Z" fill="white"/>
<path d="M394.106 237.673H358.584C357.618 237.673 356.835 236.899 356.835 235.943C356.835 234.988 357.618 234.214 358.584 234.214H394.106C395.072 234.214 395.855 234.988 395.855 235.943C395.856 236.899 395.072 237.673 394.106 237.673Z" fill="#B2C1F9"/>
<path d="M377.919 244.579H358.584C357.618 244.579 356.835 243.805 356.835 242.849C356.835 241.894 357.618 241.12 358.584 241.12H377.919C378.885 241.12 379.668 241.894 379.668 242.849C379.668 243.804 378.885 244.579 377.919 244.579Z" fill="#B2C1F9"/>
<path d="M437.353 244.579H385.035C384.069 244.579 383.286 243.805 383.286 242.849C383.286 241.894 384.069 241.12 385.035 241.12H437.353C438.319 241.12 439.102 241.894 439.102 242.849C439.102 243.804 438.318 244.579 437.353 244.579Z" fill="#B2C1F9"/>
<path d="M388.499 251.485H358.585C357.619 251.485 356.836 250.711 356.836 249.755C356.836 248.8 357.619 248.026 358.585 248.026H388.499C389.466 248.026 390.248 248.8 390.248 249.755C390.248 250.711 389.464 251.485 388.499 251.485Z" fill="#B2C1F9"/>
<path d="M413.892 251.485H395.086C394.12 251.485 393.337 250.711 393.337 249.755C393.337 248.8 394.12 248.026 395.086 248.026H413.892C414.858 248.026 415.641 248.8 415.641 249.755C415.641 250.711 414.857 251.485 413.892 251.485Z" fill="#B2C1F9"/>
<path d="M437.353 251.485H420.035C419.069 251.485 418.286 250.711 418.286 249.755C418.286 248.8 419.069 248.026 420.035 248.026H437.353C438.319 248.026 439.102 248.8 439.102 249.755C439.102 250.711 438.318 251.485 437.353 251.485Z" fill="#B2C1F9"/>
<path d="M437.353 258.39H358.584C357.618 258.39 356.835 257.616 356.835 256.66C356.835 255.705 357.618 254.931 358.584 254.931H437.353C438.319 254.931 439.102 255.705 439.102 256.66C439.102 257.616 438.318 258.39 437.353 258.39Z" fill="#B2C1F9"/>
<path d="M401.936 265.295H358.585C357.619 265.295 356.836 264.521 356.836 263.566C356.836 262.61 357.619 261.836 358.585 261.836H401.936C402.902 261.836 403.685 262.61 403.685 263.566C403.685 264.521 402.901 265.295 401.936 265.295Z" fill="#B2C1F9"/>
<path d="M437.353 265.295H408.926C407.96 265.295 407.177 264.521 407.177 263.566C407.177 262.61 407.96 261.836 408.926 261.836H437.353C438.319 261.836 439.102 262.61 439.102 263.566C439.102 264.521 438.318 265.295 437.353 265.295Z" fill="#B2C1F9"/>
<path d="M384.055 272.201H358.584C357.618 272.201 356.835 271.427 356.835 270.472C356.835 269.516 357.618 268.742 358.584 268.742H384.055C385.021 268.742 385.804 269.516 385.804 270.472C385.804 271.427 385.021 272.201 384.055 272.201Z" fill="#B2C1F9"/>
<path d="M416.42 272.201H390.949C389.983 272.201 389.2 271.427 389.2 270.472C389.2 269.516 389.983 268.742 390.949 268.742H416.42C417.386 268.742 418.169 269.516 418.169 270.472C418.169 271.427 417.386 272.201 416.42 272.201Z" fill="#B2C1F9"/>
<path d="M437.353 272.201H422.573C421.607 272.201 420.824 271.427 420.824 270.472C420.824 269.516 421.607 268.742 422.573 268.742H437.353C438.319 268.742 439.102 269.516 439.102 270.472C439.102 271.427 438.318 272.201 437.353 272.201Z" fill="#B2C1F9"/>
<path d="M394.106 279.107H358.584C357.618 279.107 356.835 278.333 356.835 277.378C356.835 276.422 357.618 275.648 358.584 275.648H394.106C395.072 275.648 395.855 276.422 395.855 277.378C395.856 278.332 395.072 279.107 394.106 279.107Z" fill="#B2C1F9"/>
<path d="M437.353 237.673H401.831C400.865 237.673 400.083 236.899 400.083 235.943C400.083 234.988 400.865 234.214 401.831 234.214H437.353C438.319 234.214 439.102 234.988 439.102 235.943C439.102 236.899 438.318 237.673 437.353 237.673Z" fill="#B2C1F9"/>
<path d="M446.641 222.589V225H293.35V222.589C293.35 218.116 297.018 214.488 301.541 214.488H438.449C442.972 214.488 446.641 218.116 446.641 222.589Z" fill="#3052CE"/>
<path d="M417.747 219.933C417.747 220.971 416.897 221.812 415.848 221.812C414.799 221.812 413.949 220.971 413.949 219.933C413.949 218.897 414.799 218.055 415.848 218.055C416.897 218.055 417.747 218.897 417.747 219.933Z" fill="#DEE3FC"/>
<path d="M427.463 219.933C427.463 220.971 426.613 221.812 425.563 221.812C424.514 221.812 423.664 220.971 423.664 219.933C423.664 218.897 424.514 218.055 425.563 218.055C426.613 218.055 427.463 218.897 427.463 219.933Z" fill="#DEE3FC"/>
<path d="M437.179 219.933C437.179 220.971 436.329 221.812 435.28 221.812C434.231 221.812 433.381 220.971 433.381 219.933C433.381 218.897 434.231 218.055 435.28 218.055C436.328 218.056 437.179 218.897 437.179 219.933Z" fill="#DEE3FC"/>
<path d="M340.809 209.368H310.471C305.972 209.368 302.324 205.761 302.324 201.312V171.31C302.324 166.86 305.972 163.253 310.471 163.253H340.809C345.308 163.253 348.956 166.859 348.956 171.31V201.312C348.955 205.762 345.308 209.368 340.809 209.368Z" stroke="#495AD6" stroke-width="1.02034" stroke-miterlimit="10"/>
<path d="M318.365 179.641L311.647 186.285L318.419 192.981" stroke="#495AD6" stroke-width="1.90443" stroke-miterlimit="10" stroke-linecap="round" stroke-linejoin="round"/>
<path d="M332.913 179.641L339.631 186.285L332.86 192.981" stroke="#495AD6" stroke-width="1.90443" stroke-miterlimit="10" stroke-linecap="round" stroke-linejoin="round"/>
<path d="M328.785 179.641L322.494 192.981" stroke="#495AD6" stroke-width="1.90443" stroke-miterlimit="10" stroke-linecap="round" stroke-linejoin="round"/>
<path d="M446.641 50.6925V144.51C446.641 149.603 442.471 153.727 437.321 153.727H302.669C297.531 153.727 293.35 149.603 293.35 144.51V50.6925C293.35 45.5999 297.531 41.4763 302.669 41.4763H437.321C442.471 41.4763 446.641 45.5999 446.641 50.6925Z" fill="#B2C1F9"/>
<path d="M415.595 93.0896C427.865 93.0896 437.811 83.2532 437.811 71.1195C437.811 58.9858 427.865 49.1494 415.595 49.1494C403.325 49.1494 393.379 58.9858 393.379 71.1195C393.379 83.2532 403.325 93.0896 415.595 93.0896Z" fill="#F0F4FF"/>
<path d="M383.456 153.727H302.669C297.531 153.727 293.35 149.603 293.35 144.511V129.74L328.702 69.1813C330.548 66.0154 335.173 66.0154 337.019 69.1813L363.712 114.902L383.536 148.86C384.493 150.482 384.345 152.33 383.456 153.727Z" fill="white"/>
<path d="M418.295 153.727H341.04L363.712 114.902L375.925 93.9794C377.589 91.1289 381.747 91.1289 383.41 93.9794L418.295 153.727Z" fill="#F0F4FF"/>
<path d="M571.527 328.056H511.97V416.571H571.527V328.056Z" fill="#3B47BC"/>
<path d="M571.528 416.572H594.332V328.057H571.528V416.572Z" fill="#495AD6"/>
<path d="M591.536 331.456H574.793V334.28H591.536V331.456Z" fill="#B2C1F9"/>
<path d="M591.535 337.525H574.792V340.349H591.535V337.525Z" fill="#B2C1F9"/>
<path d="M591.535 343.593H574.792V346.418H591.535V343.593Z" fill="#B2C1F9"/>
<path d="M591.535 349.661H574.792V352.486H591.535V349.661Z" fill="#B2C1F9"/>
<path d="M591.535 355.73H574.792V358.554H591.535V355.73Z" fill="#B2C1F9"/>
<path d="M591.535 361.799H574.792V364.624H591.535V361.799Z" fill="#B2C1F9"/>
<path d="M591.535 367.868H574.792V370.692H591.535V367.868Z" fill="#B2C1F9"/>
<path d="M591.535 373.936H574.792V376.76H591.535V373.936Z" fill="#B2C1F9"/>
<path d="M591.535 380.004H574.792V382.828H591.535V380.004Z" fill="#B2C1F9"/>
<path d="M591.535 386.073H574.792V388.898H591.535V386.073Z" fill="#B2C1F9"/>
<path d="M591.535 392.142H574.792V394.966H591.535V392.142Z" fill="#B2C1F9"/>
<path d="M591.535 398.21H574.792V401.034H591.535V398.21Z" fill="#B2C1F9"/>
<path d="M591.535 404.279H574.792V407.104H591.535V404.279Z" fill="#B2C1F9"/>
<path d="M591.535 410.347H574.792V413.172H591.535V410.347Z" fill="#B2C1F9"/>
<path d="M502.295 416.571H532.564C532.564 416.571 534.256 411.241 530.59 404.638C530.59 404.638 528.153 406.57 520.856 405.263C520.856 405.263 517.81 407.821 515.707 408.82C513.593 409.833 501.48 412.185 502.295 416.571Z" fill="#281616"/>
<path d="M504.406 332.166C506.361 343.702 515.382 382.731 519.26 405.789C526.348 406.386 529.752 405.581 531.556 405.17C531.202 397.13 530.503 377.899 530.585 369.465C530.719 355.211 531.396 336.415 525.051 326.099L503.717 327.76C503.847 328.874 503.964 329.78 504.069 330.428C504.172 331.05 504.289 331.623 504.406 332.166Z" fill="#002C54"/>
<path d="M447.546 416.571H477.815C477.815 416.571 479.507 411.241 475.84 404.638C475.84 404.638 473.403 406.57 466.106 405.263C466.106 405.263 463.061 407.821 460.958 408.82C458.843 409.833 446.73 412.185 447.546 416.571Z" fill="#281616"/>
<path d="M465.23 405.114C471.014 406.53 475.204 406.392 477.187 406.171C478.797 396.904 481.339 376.511 483.627 366.954C487.177 352.097 490.652 331.665 488.238 324.376L467.252 319.164C467.182 319.82 465.473 382.353 465.23 405.114Z" fill="#052635"/>
<path d="M548.754 297.89C548.332 293.789 547.847 290.793 547.847 290.793L524.4 296.468L504.483 300.956C497.099 302.582 488.18 304.541 480.317 306.298C471.493 308.281 465.635 314.909 467.567 323.648L469.778 334.246C482.12 334.08 540.147 328.579 545.11 326.101C550.718 323.3 552.405 313.398 548.754 297.89Z" fill="#052635"/>
<path d="M583.754 297.89C583.333 293.788 581.311 289.388 581.311 289.388L559.401 296.468L539.484 300.955C532.1 302.582 523.181 304.54 515.317 306.298C506.494 308.281 500.635 314.909 502.568 323.647L504.779 334.246C517.121 334.079 568.705 332.301 580.111 326.1C585.615 323.107 587.406 313.398 583.754 297.89Z" fill="#002C54"/>
<path d="M518.128 264.658C518.128 264.658 528.542 260.006 531.409 264.672C532.977 267.226 531.893 271.97 528.34 273.962C524.788 275.954 504.717 284.349 485.775 289.03C485.775 289.03 484.964 286.424 483.661 283.687C483.661 283.687 492.159 280.201 500.608 274.333C509.056 268.464 518.128 264.658 518.128 264.658Z" fill="#E5918F"/>
<path d="M520.731 232.498L511.806 267.752C511.806 267.752 512.729 276.665 521.831 272.29C530.932 267.916 536.964 239.829 536.964 239.829L520.731 232.498Z" fill="#E5918F"/>
<path d="M535.832 252.216C534.728 251.952 533.674 251.663 532.658 251.362C531.616 251.061 530.626 250.746 529.686 250.42C521.205 247.544 516.622 244.091 516.622 244.091C519.288 232.628 522.501 224.931 525.357 219.859C525.433 219.734 525.51 219.62 525.573 219.482C525.65 219.357 525.726 219.231 525.802 219.106C527.338 216.582 529.547 214.461 532.01 212.716C532.264 212.54 532.506 212.376 532.76 212.201L533.814 230.607L533.992 232.503L535.832 252.216Z" fill="white"/>
<path d="M535.831 252.215C534.727 251.951 533.674 251.663 532.657 251.361C531.616 251.06 530.626 250.746 529.686 250.419C531.467 238.02 533.076 230.23 533.076 230.23L533.99 232.503L535.831 252.215Z" fill="#C7E5F2"/>
<path d="M588.521 220.387C588.306 225.837 587.341 234.588 586.502 243.377C586.235 246.164 585.981 248.964 585.766 251.663C585.613 253.346 583.049 262.323 582.948 263.931C582.491 271.615 578.682 277.365 582.288 289.067C583.151 291.866 583.367 293.311 583.367 294.466C583.367 295.269 582.313 296.111 581.894 296.336C580.383 297.202 577.412 297.805 573.806 298.245H573.793C566.697 299.099 557.123 299.262 551.346 299.262C543.589 299.262 531.946 298.044 530.473 296.111C529.128 294.341 530.372 291.766 531.006 288.213C533.863 272.179 532.847 263.817 532.67 252.241C532.67 251.953 532.657 251.663 532.657 251.363C532.366 233.508 531.172 218.228 532.01 212.717C532.264 212.541 532.506 212.378 532.76 212.202C533.991 211.373 535.198 210.632 536.366 209.979C536.467 209.928 536.595 209.854 536.721 209.778C537.076 209.578 537.444 209.39 537.787 209.2C537.914 209.125 538.054 209.062 538.194 209C540.822 207.731 544.656 206.376 546.853 205.622C547.132 205.534 547.386 205.446 547.601 205.383C549.671 205.258 551.918 205.232 554.343 205.295C556.451 205.358 559.675 205.634 563.18 206.086C563.192 206.086 563.192 206.086 563.192 206.086C567.154 206.589 571.483 207.329 574.924 208.258C574.924 208.258 574.961 208.271 574.987 208.283C575.634 208.484 579.837 210.041 584.218 214.674C585.676 216.206 587.174 218.089 588.521 220.387Z" fill="white"/>
<path d="M582.287 289.066C583.151 291.865 583.366 293.31 583.366 294.465C583.366 295.268 582.312 296.109 581.893 296.335C580.382 297.201 577.411 297.804 573.805 298.243C575.291 298.068 577.855 295.737 577.855 293.635C577.855 292.164 575.925 282.222 576.459 275.807C576.992 269.404 578.046 259.209 576.039 251.047C574.021 242.886 572.129 232.151 572.129 232.151L583.441 238.905C583.441 238.905 584.902 240.926 586.501 243.375C586.235 246.162 585.981 248.962 585.765 251.661C585.614 253.344 578.681 277.364 582.287 289.066Z" fill="#C7E5F2"/>
<path d="M532.521 173.2C532.521 173.2 533.499 184.9 537.423 185.687C541.346 186.473 540.383 181.501 540.383 181.501L539.835 175.945L532.521 173.2Z" fill="#002C54"/>
<path d="M550.611 215.603C542.93 214.7 545.798 207.317 546.852 205.622C547.131 205.534 548.452 205.132 548.553 205.07C548.566 205.058 548.578 205.058 548.578 205.058C548.832 204.857 549.022 204.555 549.175 204.179C549.924 202.233 549.582 198.353 549.556 198.102C549.556 198.089 549.556 198.089 549.556 198.089V197.386C549.682 196.922 549.81 196.483 549.911 196.068L553.949 192.929L562.493 186.287C562.493 186.287 560.22 197.399 562.049 204.405C562.189 204.933 562.468 205.674 563.179 206.087C563.179 206.1 563.192 206.087 563.192 206.087C563.421 206.238 563.7 206.339 564.043 206.388C566.138 207.366 563.218 217.085 550.611 215.603Z" fill="#E5918F"/>
<path d="M557.38 193.347C557.38 193.347 557.308 200.763 549.169 204.173C549.925 202.237 549.577 198.356 549.553 198.106L552.963 195.458L557.38 193.347Z" fill="#CC6362"/>
<path d="M534.396 174.865C534.396 174.865 536.171 199.141 542.8 201.204C542.8 201.204 551.245 201.991 557.308 193.925C559.055 191.602 561.263 191.079 561.984 188.272C563.155 183.714 564.807 175.307 562.7 170.24C559.699 163.024 534.681 157.295 534.396 174.865Z" fill="#E5918F"/>
<path d="M562.801 166.233C562.691 161.824 558.179 160.175 558.179 160.175C553.685 158.095 544.348 158.993 534.721 161.117C532.464 161.615 529.632 160.245 528.055 161.327C526.15 162.634 528.047 168.605 528.047 168.605C531.76 179.726 545.424 176.11 549.531 174.738C550.508 177.6 550.381 181.582 552.816 183.635C554.204 184.804 556.614 184.838 559.066 184.434C559.368 185.002 560.502 185.501 560.732 186.28C561.504 188.881 561.394 192.945 561.37 196.081L562.528 195.521C562.68 194.673 574.665 166.597 562.801 166.233Z" fill="#002C54"/>
<path d="M541.195 183.041C541.542 185.057 540.537 186.908 538.95 187.175C537.363 187.442 535.795 186.025 535.449 184.008C535.102 181.992 536.107 180.141 537.694 179.874C539.281 179.607 540.849 181.024 541.195 183.041Z" stroke="white" stroke-width="0.570782" stroke-miterlimit="10"/>
<path d="M549.204 181.561C549.55 183.577 548.545 185.428 546.958 185.695C545.371 185.962 543.804 184.545 543.457 182.528C543.111 180.512 544.116 178.661 545.703 178.394C547.29 178.127 548.857 179.546 549.204 181.561Z" stroke="white" stroke-width="0.570782" stroke-miterlimit="10"/>
<path d="M541.195 183.042C541.195 183.042 541.546 182.478 543.39 182.636" stroke="white" stroke-width="0.570782" stroke-miterlimit="10"/>
<path d="M549.274 182.044L556.12 180.962" stroke="white" stroke-width="0.570782" stroke-miterlimit="10"/>
<path d="M556.623 189.557C561.338 191.344 562.811 179.866 558.333 179.358C554.938 178.973 554.799 183.658 554.799 183.658C554.799 183.658 553.931 188.537 556.623 189.557Z" fill="#E5918F"/>
<g opacity="0.5">
<path d="M558.178 181.087C558.178 181.087 557.873 181.397 557.594 181.91C557.312 182.42 557.064 183.119 557.018 183.867C556.974 184.238 556.984 184.618 557.001 184.98C557.014 185.344 557.058 185.685 557.083 185.988C557.116 186.294 557.144 186.549 557.162 186.728C557.18 186.91 557.18 187.02 557.18 187.02C557.18 187.02 557.112 186.937 557.012 186.783C556.925 186.623 556.746 186.41 556.627 186.115C556.494 185.824 556.355 185.474 556.281 185.074C556.189 184.678 556.164 184.236 556.198 183.794C556.24 183.352 556.357 182.91 556.546 182.533C556.726 182.15 556.985 181.842 557.228 181.618C557.736 181.172 558.178 181.087 558.178 181.087Z" fill="#CC6362"/>
<path d="M558.915 183.267C558.915 183.267 558.722 183.287 558.458 183.387C558.193 183.479 557.868 183.663 557.621 183.911C557.37 184.154 557.208 184.454 557.127 184.689C557.04 184.921 557.013 185.086 557.013 185.086L556.236 184.811C556.236 184.811 556.327 184.615 556.517 184.356C556.701 184.094 557.009 183.781 557.377 183.583C557.74 183.376 558.138 183.283 558.43 183.263C558.723 183.235 558.915 183.267 558.915 183.267Z" fill="#CC6362"/>
</g>
<path d="M601.956 269.305C601.956 269.305 601.956 269.305 601.954 269.316C599.882 271.693 592.019 273.426 588.235 270.138C587.047 269.09 585.705 266.329 584.385 262.904C581.03 254.147 577.856 241.045 577.856 241.045L595.454 232.152C595.454 232.152 597.717 242.19 599.668 251.73C599.668 251.73 599.685 251.827 599.721 251.996C600.356 255.051 600.947 258.057 601.411 260.636C601.43 260.71 601.437 260.769 601.444 260.841C601.909 263.921 602.207 267.132 601.956 269.305Z" fill="#E5918F"/>
<path d="M571.209 228.856C572.909 235.845 578.25 249.088 578.25 249.088C581.992 249.702 587.009 249.02 591.166 247.543C595.965 245.838 599.392 242.259 599.392 242.259C599.392 242.259 595.85 232.413 592.671 225.34C589.817 218.99 588.104 216.619 586.869 215.361C585.008 213.435 582.01 211.226 579.882 210.222L571.209 228.856Z" fill="white"/>
<path d="M593.463 233.42L583.136 229.014L574.999 208.281C574.999 208.281 576.491 208.729 578.454 209.513C578.454 209.513 578.454 209.513 578.463 209.513C578.5 209.532 578.586 209.56 578.727 209.616C578.774 209.635 578.831 209.653 578.879 209.681C580.634 210.494 587.44 214.461 592.15 228.874C592.188 228.996 592.225 229.116 592.263 229.238C592.763 230.9 593.131 232.235 593.329 232.926C593.349 232.991 593.367 233.056 593.386 233.131C593.416 233.224 593.435 233.327 593.463 233.42Z" fill="white"/>
<path d="M601.956 269.305C601.956 269.305 601.956 269.305 601.954 269.316C601.803 270.59 601.447 271.506 600.811 271.831C600.709 271.895 599.265 272.745 599.163 272.81C597.011 274.111 593.109 276.324 588.256 278.388C576.485 283.417 559.384 289.25 550.165 291.922C550.165 291.922 549.255 289.347 547.835 286.664C547.835 286.664 556.175 282.835 564.371 276.626C572.579 270.43 584.384 262.904 584.384 262.904L587.366 259.436C587.366 259.436 597.965 249.789 599.667 251.731C599.667 251.731 599.684 251.828 599.72 251.997C599.973 253.003 600.814 256.704 601.41 260.637C601.429 260.71 601.436 260.77 601.443 260.842C601.909 263.92 602.207 267.131 601.956 269.305Z" fill="#E5918F"/>
<path d="M549.054 286.075C549.054 286.075 546.982 287.31 544.871 286.871C543.703 286.627 543.231 286.155 542.368 286.005C541.504 285.856 539.204 285.575 538.065 285.022C536.927 284.47 536.481 284.408 536.522 285.539C536.562 286.67 538.809 287.647 539.418 287.961C540.028 288.275 540.792 289.277 540.874 289.404C540.956 289.53 537.129 291.51 536.101 291.108C536.101 291.108 535.794 292.02 535.968 292.528C536.143 293.037 536.93 293.215 536.99 293.471C537.052 293.727 536.809 294.249 536.98 294.655C537.151 295.06 537.853 295.063 538.136 295.722C538.42 296.381 538.108 296.392 538.314 297.08C538.52 297.768 539.41 297.891 539.579 298.246C539.747 298.601 539.659 299.015 540.031 299.26C540.405 299.504 543.847 298.411 545.103 297.879C546.36 297.347 549.717 292.567 553.432 290.938L549.054 286.075Z" fill="#E5918F"/>
<path d="M566.644 307.412H539.875V304.822H566.644C567.368 304.822 567.955 305.402 567.955 306.118C567.955 306.832 567.368 307.412 566.644 307.412Z" fill="#375F84"/>
<path d="M552.161 307.412H485.133C484.331 307.412 483.626 306.882 483.412 306.119L469.694 257.281C469.391 256.2 470.212 255.13 471.347 255.13H536.164C537.675 255.13 539 256.126 539.404 257.565L553.073 306.227C553.239 306.823 552.785 307.412 552.161 307.412Z" fill="#375F84"/>
<path d="M549.734 307.412H482.707C481.905 307.412 481.2 306.882 480.985 306.119L467.267 257.281C466.964 256.2 467.785 255.13 468.92 255.13H533.737C535.248 255.13 536.573 256.126 536.978 257.565L550.647 306.227C550.813 306.823 550.36 307.412 549.734 307.412Z" fill="#467CDB"/>
<path d="M284.081 275.857L291.845 267.985C291.845 267.985 292.114 264.475 292.537 263.735C292.959 262.994 294.052 260.252 294.595 259.953C295.14 259.655 296.228 259.953 296.228 259.953C296.228 259.953 297.307 259.595 297.79 259.595C298.274 259.595 299.179 260.032 299.179 260.032C299.179 260.032 300.34 259.955 300.823 259.955C301.307 259.955 301.462 260.089 301.462 260.089C301.462 260.089 303.334 257.959 304.24 257.243C305.147 256.525 306.534 255.204 306.945 255.209C307.332 255.214 307.503 255.887 307.221 256.605C306.938 257.323 305.71 258.48 305.71 258.48L302.173 263.782C302.173 263.782 302.778 263.543 303.1 263.344C303.422 263.144 305.58 261.151 305.71 261.071C305.841 260.991 306.808 260.353 307.372 260.991C307.936 261.629 303.669 266.685 302.983 267.362C302.297 268.041 298.374 270.004 298.374 270.004C298.374 270.004 294.232 277.373 293.829 277.852C293.426 278.329 284.081 275.857 284.081 275.857Z" fill="#E49191"/>
<path d="M291.388 239.52C291.388 239.52 287.051 264.365 282.969 264.942C282.969 264.942 266.671 265.592 263.041 246.041C259.892 229.085 272.521 225.469 278.429 226.767C284.335 228.062 292.656 228.906 291.388 239.52Z" fill="#E49191"/>
<path d="M276.986 260.968C276.986 260.968 274.702 264.012 273.902 271.384C273.902 271.384 267.115 272.344 260.857 269.157C260.857 269.157 264.229 258.758 264.643 247.468" fill="#E49191"/>
<path d="M272.389 222.606C263.483 224.552 264.195 230.038 264.195 230.038C260.025 231.059 259.13 232.762 259.164 240.372C259.198 247.984 261.983 257.122 263.519 257.866C265.055 258.61 273.761 258.646 274.488 258.384C275.215 258.123 278.262 251.141 277.552 249.912C276.841 248.684 277.587 243.853 279.615 243.67C281.643 243.486 281.245 246.596 281.245 246.596L282.912 246.234L284.198 243.113C295.967 243.806 299.008 230.543 299.008 230.543C296.181 228.72 281.296 220.66 272.389 222.606Z" fill="#002C54"/>
<path d="M173.528 390.8L182.533 392.088L179.55 402.486L169.798 400.053C169.798 400.053 165.83 394.734 171.821 390.8C172.11 390.61 173.056 390.694 173.528 390.8Z" fill="#E5918F"/>
<path d="M240.739 364.091L227.466 324.349C227.466 324.349 223.443 322.932 221.383 324.349C221.383 324.349 207.556 331.702 209.032 352.667C210.143 368.472 213.518 385.613 214.885 392.488L179.474 391.193C179.474 391.193 175.105 396.329 177.931 403.013C177.931 403.013 222.426 414.847 228.694 415.941C233.788 416.83 239.364 417.515 242.056 415.234C246.8 411.215 240.739 364.091 240.739 364.091Z" fill="black"/>
<path d="M215.455 390.8L224.46 392.088L221.477 402.486L211.725 400.053C211.725 400.053 207.757 394.734 213.749 390.8C214.037 390.61 214.984 390.694 215.455 390.8Z" fill="#E5918F"/>
<path d="M212.187 396.252C211.986 398.299 213.797 400.143 213.466 400.654C213.134 401.164 207.081 411.207 207.081 411.207C207.081 411.207 211.651 413.176 210.914 416.018H199.341C199.341 416.018 196.318 413.321 196.392 409.458C196.392 409.458 197.178 405.011 199.243 401.074C201.307 397.138 205.999 388.25 205.999 388.25C205.999 388.25 207.422 387.681 209.856 388.324C212.707 389.075 215.455 390.8 215.455 390.8C215.455 390.8 212.685 391.193 212.187 396.252Z" fill="#467CDB"/>
<path d="M304.892 406.884C302.035 396.341 275.151 351.329 266.056 339.176C247.376 331.155 227.467 324.349 227.467 324.349C219.233 326.294 215.177 342.701 219.847 353.639C223.051 361.144 243.376 380.03 255.822 391.149L221.283 391.108C221.283 391.108 217.214 397.123 220.901 402.835C220.901 402.835 278.346 415.752 283.384 416.481C288.423 417.21 299.729 416.481 299.729 416.481C299.729 416.481 307.297 415.76 304.892 406.884Z" fill="#002C54"/>
<path d="M170.261 396.252C170.059 398.299 171.871 400.143 171.539 400.654C171.207 401.164 165.154 411.207 165.154 411.207C165.154 411.207 169.724 413.176 168.987 416.018H157.414C157.414 416.018 154.392 413.321 154.466 409.458C154.466 409.458 155.252 405.011 157.316 401.074C159.381 397.138 164.072 388.25 164.072 388.25C164.072 388.25 165.495 387.681 167.93 388.324C170.779 389.075 173.528 390.8 173.528 390.8C173.528 390.8 170.759 391.193 170.261 396.252Z" fill="#467CDB"/>
<path d="M348.14 268.207L329.614 300.433L316.347 287.355L305.365 303.52L308.554 305.035L307.407 305.979C307.407 305.979 333.011 318.31 336.079 315.589C339.147 312.869 353.443 271.87 353.443 271.87L348.14 268.207Z" fill="#E49191"/>
<path d="M318.711 289.401C318.711 289.401 315.213 303.991 308.218 310.909L290.32 304.172C290.32 304.172 282.015 317.985 273.891 328.575C270.77 332.665 269.733 338.423 266.065 339.177C265.837 339.099 265.62 339.031 265.392 338.975C255.446 336.023 240.772 339.155 228.662 334.705C215.287 329.781 217.884 327.009 217.884 327.009C217.884 327.009 225.996 312.554 230.599 297.243C232.649 290.471 234.073 284.196 235.019 279.295C236.717 270.619 243.746 263.837 252.61 262.654C252.712 262.643 252.803 262.62 252.906 262.609C263.045 261.336 289.591 264.434 294.752 266.62C299.913 268.805 318.711 289.401 318.711 289.401Z" fill="#467CDB"/>
<path d="M290.32 304.171C290.32 304.171 282.014 317.984 273.891 328.575C270.769 332.665 269.733 338.422 266.064 339.177C267.671 338.614 270.337 330.254 271.282 328.372C272.239 326.502 273.754 324.62 277.036 318.052C280.305 311.472 284.744 301.829 284.744 301.829L290.32 304.171Z" fill="#5996EF"/>
<path d="M255.822 391.149C255.822 391.149 256.104 391.087 256.6 391.024C257.097 390.973 257.809 390.871 258.665 390.838C260.377 390.746 262.668 390.813 264.935 391.124C266.067 391.287 267.195 391.484 268.236 391.744C269.279 391.987 270.241 392.276 271.048 392.568C271.86 392.841 272.512 393.147 272.967 393.348C273.423 393.555 273.676 393.688 273.676 393.688C273.676 393.688 273.388 393.655 272.897 393.572C272.411 393.469 271.705 393.375 270.871 393.235C269.202 392.959 266.991 392.607 264.769 392.313C263.662 392.143 262.546 392.023 261.503 391.879C260.455 391.75 259.477 391.628 258.639 391.524C256.949 391.299 255.822 391.149 255.822 391.149Z" fill="black"/>
<path d="M361.986 256.345C361.687 256.316 359.788 257.823 358.871 258.568L359.927 256.567C359.927 256.567 361.324 255.233 361.826 254.501C362.328 253.769 362.064 253.036 361.668 252.997C361.389 252.969 359.717 254.28 358.75 255.061L358.963 254.659C358.963 254.659 360.36 253.325 360.862 252.592C361.365 251.86 361.1 251.128 360.704 251.088C360.307 251.049 357.093 253.717 357.093 253.717L355.528 255.789L356.708 253.522C356.708 253.522 357.33 252.77 357.744 251.951C358.159 251.132 357.859 250.882 357.629 250.608C357.399 250.334 355.235 251.929 354.683 252.565C354.13 253.203 352.381 255.785 352.243 256.15L350.435 259.849C350.32 258.778 350.138 256.943 350.011 255.775C349.826 254.091 348.284 253.693 348.231 254.512C348.177 255.331 347.318 259.36 347.513 261.545C347.708 263.729 348.078 265.164 348.216 266.393C348.354 267.622 347.065 270.078 347.065 270.078C347.065 270.078 352.221 273.244 353.073 272.297C353.925 271.349 355.739 269.245 356.616 267.827C357.82 265.88 358.634 263.32 358.634 263.32L360.245 259.917C360.245 259.917 361.641 258.583 362.144 257.85C362.646 257.117 362.382 256.384 361.986 256.345Z" fill="#E49191"/>
<path d="M657.912 153.731H597.457C593.583 153.731 590.442 156.837 590.442 160.669V174.793C590.442 178.327 593.116 181.245 596.572 181.676C597.079 181.739 597.457 182.165 597.457 182.669V190.401C597.457 190.848 598.037 191.032 598.3 190.668L604.458 182.152C604.65 181.888 604.958 181.73 605.288 181.73H657.912C661.787 181.73 664.928 178.624 664.928 174.792V160.668C664.928 156.837 661.787 153.731 657.912 153.731Z" stroke="white" stroke-width="1.02034" stroke-miterlimit="10"/>
<path d="M606.732 167.71C606.732 168.971 605.698 169.993 604.423 169.993C603.147 169.993 602.114 168.97 602.114 167.71C602.114 166.448 603.148 165.426 604.423 165.426C605.698 165.426 606.732 166.448 606.732 167.71Z" stroke="white" stroke-width="1.02034" stroke-miterlimit="10"/>
<path d="M618.363 167.71C618.363 168.971 617.329 169.993 616.054 169.993C614.778 169.993 613.745 168.97 613.745 167.71C613.745 166.448 614.779 165.426 616.054 165.426C617.329 165.426 618.363 166.448 618.363 167.71Z" stroke="white" stroke-width="1.02034" stroke-miterlimit="10"/>
<path d="M629.996 167.71C629.996 168.971 628.961 169.993 627.686 169.993C626.41 169.993 625.376 168.97 625.376 167.71C625.376 166.448 626.41 165.426 627.686 165.426C628.961 165.426 629.996 166.448 629.996 167.71Z" stroke="white" stroke-width="1.02034" stroke-miterlimit="10"/>
<path d="M641.626 167.71C641.626 168.971 640.592 169.993 639.317 169.993C638.041 169.993 637.007 168.97 637.007 167.71C637.007 166.448 638.041 165.426 639.317 165.426C640.592 165.426 641.626 166.448 641.626 167.71Z" stroke="white" stroke-width="1.02034" stroke-miterlimit="10"/>
<path d="M653.257 167.71C653.257 168.971 652.223 169.993 650.947 169.993C649.671 169.993 648.638 168.97 648.638 167.71C648.638 166.448 649.672 165.426 650.947 165.426C652.222 165.426 653.257 166.448 653.257 167.71Z" stroke="white" stroke-width="1.02034" stroke-miterlimit="10"/>
<path d="M180.209 215.65H240.664C244.538 215.65 247.679 218.756 247.679 222.588V236.712C247.679 240.247 245.005 243.164 241.549 243.594C241.042 243.658 240.664 244.083 240.664 244.588V252.319C240.664 252.767 240.084 252.95 239.821 252.586L233.663 244.071C233.471 243.806 233.163 243.65 232.833 243.65H180.209C176.334 243.65 173.193 240.543 173.193 236.712V222.588C173.193 218.756 176.334 215.65 180.209 215.65Z" stroke="white" stroke-width="1.02034" stroke-miterlimit="10"/>
<path d="M231.389 229.628C231.389 230.89 232.423 231.912 233.698 231.912C234.974 231.912 236.008 230.889 236.008 229.628C236.008 228.367 234.974 227.345 233.698 227.345C232.423 227.344 231.389 228.367 231.389 229.628Z" stroke="white" stroke-width="1.02034" stroke-miterlimit="10"/>
<path d="M219.758 229.628C219.758 230.89 220.792 231.912 222.067 231.912C223.343 231.912 224.376 230.889 224.376 229.628C224.376 228.367 223.342 227.345 222.067 227.345C220.792 227.344 219.758 228.367 219.758 229.628Z" stroke="white" stroke-width="1.02034" stroke-miterlimit="10"/>
<path d="M208.126 229.628C208.126 230.89 209.16 231.912 210.435 231.912C211.711 231.912 212.745 230.889 212.745 229.628C212.745 228.367 211.71 227.345 210.435 227.345C209.16 227.344 208.126 228.367 208.126 229.628Z" stroke="white" stroke-width="1.02034" stroke-miterlimit="10"/>
<path d="M196.495 229.628C196.495 230.89 197.529 231.912 198.804 231.912C200.08 231.912 201.114 230.889 201.114 229.628C201.114 228.367 200.079 227.345 198.804 227.345C197.529 227.344 196.495 228.367 196.495 229.628Z" stroke="white" stroke-width="1.02034" stroke-miterlimit="10"/>
<path d="M184.864 229.628C184.864 230.89 185.898 231.912 187.174 231.912C188.45 231.912 189.484 230.889 189.484 229.628C189.484 228.367 188.449 227.345 187.174 227.345C185.897 227.344 184.864 228.367 184.864 229.628Z" stroke="white" stroke-width="1.02034" stroke-miterlimit="10"/>
<path d="M545.312 121.148H435.125C429.048 121.148 424.122 116.276 424.122 110.267C424.122 104.257 429.048 99.3853 435.125 99.3853H545.312C551.389 99.3853 556.315 104.257 556.315 110.267C556.315 116.276 551.389 121.148 545.312 121.148Z" fill="white" stroke="#495AD6" stroke-width="1.02034" stroke-miterlimit="10"/>
<path d="M543.697 109.517C543.697 112.714 541.078 115.304 537.846 115.304C534.614 115.304 531.995 112.714 531.995 109.517C531.995 106.321 534.614 103.731 537.846 103.731C541.078 103.731 543.697 106.321 543.697 109.517Z" stroke="#495AD6" stroke-width="1.90443" stroke-miterlimit="10"/>
<path d="M541.983 113.608L545.214 116.804" stroke="#495AD6" stroke-width="1.90443" stroke-miterlimit="10" stroke-linecap="round"/>
<path d="M378.399 417.097H350.679C345.829 417.097 341.897 413.209 341.897 408.412V380.999C341.897 376.203 345.829 372.315 350.679 372.315H378.399C383.249 372.315 387.181 376.203 387.181 380.999V408.412C387.181 413.209 383.249 417.097 378.399 417.097Z" fill="#193091"/>
<path d="M370.146 417.097H342.426C337.576 417.097 333.644 413.208 333.644 408.412V380.999C333.644 376.203 337.576 372.315 342.426 372.315H370.146C374.996 372.315 378.927 376.203 378.927 380.999V408.412C378.927 413.208 374.996 417.097 370.146 417.097Z" fill="#495AD6"/>
<path d="M350.937 386.252L363.935 393.674C364.738 394.132 364.738 395.277 363.935 395.735L350.937 403.157C350.135 403.615 349.132 403.042 349.132 402.126V387.283C349.133 386.367 350.135 385.795 350.937 386.252Z" fill="white"/>
<path d="M665.139 417.096H628.901C622.561 417.096 617.422 412.014 617.422 405.744V369.908C617.422 363.638 622.561 358.556 628.901 358.556H665.139C671.479 358.556 676.618 363.638 676.618 369.908V405.744C676.618 412.013 671.479 417.096 665.139 417.096Z" fill="#193091"/>
<path d="M654.351 417.096H618.114C611.774 417.096 606.634 412.014 606.634 405.744V369.908C606.634 363.638 611.774 358.556 618.114 358.556H654.351C660.691 358.556 665.83 363.638 665.83 369.908V405.744C665.83 412.013 660.691 417.096 654.351 417.096Z" fill="#495AD6"/>
<path d="M643.344 372.919C643.344 376.803 640.16 379.952 636.231 379.952C632.303 379.952 629.119 376.803 629.119 372.919C629.119 369.034 632.303 365.885 636.231 365.885C640.16 365.885 643.344 369.034 643.344 372.919Z" fill="white"/>
<path d="M651.058 396.732V407.114C651.058 408.053 650.289 408.813 649.34 408.813H623.122C622.173 408.813 621.404 408.053 621.404 407.114V396.732C621.404 388.635 628.041 382.07 636.231 382.07C644.421 382.071 651.058 388.635 651.058 396.732Z" fill="white"/>
<path d="M503.85 133.684H480.575C479.609 133.684 478.827 132.91 478.827 131.955C478.827 131 479.609 130.226 480.575 130.226H503.85C504.816 130.226 505.599 131 505.599 131.955C505.599 132.909 504.816 133.684 503.85 133.684Z" fill="#F0F4FF"/>
<path d="M527.134 133.684H510.291C509.324 133.684 508.542 132.91 508.542 131.955C508.542 131 509.324 130.226 510.291 130.226H527.134C528.1 130.226 528.883 131 528.883 131.955C528.884 132.909 528.1 133.684 527.134 133.684Z" fill="#F0F4FF"/>
<path d="M490.465 141.289H480.577C479.611 141.289 478.828 140.515 478.828 139.56C478.828 138.605 479.611 137.831 480.577 137.831H490.465C491.431 137.831 492.214 138.605 492.214 139.56C492.214 140.514 491.43 141.289 490.465 141.289Z" fill="#F0F4FF"/>
<path d="M527.134 141.289H496.335C495.368 141.289 494.586 140.515 494.586 139.56C494.586 138.605 495.368 137.831 496.335 137.831H527.134C528.1 137.831 528.883 138.605 528.883 139.56C528.884 140.514 528.1 141.289 527.134 141.289Z" fill="#F0F4FF"/>
<path d="M511.256 148.895H480.576C479.61 148.895 478.827 148.121 478.827 147.165C478.827 146.21 479.61 145.436 480.576 145.436H511.256C512.222 145.436 513.004 146.21 513.004 147.165C513.004 148.12 512.222 148.895 511.256 148.895Z" fill="#F0F4FF"/>
<path d="M527.134 148.895H517.245C516.279 148.895 515.496 148.121 515.496 147.165C515.496 146.21 516.279 145.436 517.245 145.436H527.134C528.1 145.436 528.882 146.21 528.882 147.165C528.884 148.12 528.1 148.895 527.134 148.895Z" fill="#F0F4FF"/>
<path d="M209.133 310.338H127.885C125.48 310.338 123.53 308.409 123.53 306.03V265.47C123.53 263.091 125.48 261.163 127.885 261.163H209.133C211.538 261.163 213.489 263.092 213.489 265.47V306.03C213.49 308.41 211.539 310.338 209.133 310.338Z" fill="#193091"/>
<path d="M127.353 267.806H209.667" stroke="white" stroke-width="1.02034" stroke-miterlimit="10" stroke-linecap="round"/>
<path d="M207.494 265.412C208.045 265.412 208.491 264.971 208.491 264.426C208.491 263.882 208.045 263.44 207.494 263.44C206.943 263.44 206.497 263.882 206.497 264.426C206.497 264.971 206.943 265.412 207.494 265.412Z" fill="white"/>
<path d="M202.295 265.412C202.846 265.412 203.292 264.971 203.292 264.426C203.292 263.882 202.846 263.44 202.295 263.44C201.744 263.44 201.298 263.882 201.298 264.426C201.298 264.971 201.744 265.412 202.295 265.412Z" fill="white"/>
<path d="M197.098 265.412C197.649 265.412 198.095 264.971 198.095 264.426C198.095 263.882 197.649 263.44 197.098 263.44C196.548 263.44 196.101 263.882 196.101 264.426C196.101 264.971 196.548 265.412 197.098 265.412Z" fill="white"/>
<path d="M142.697 274.425H128.73C127.97 274.425 127.353 273.815 127.353 273.064C127.353 272.312 127.97 271.703 128.73 271.703H142.697C143.457 271.703 144.073 272.312 144.073 273.064C144.073 273.815 143.457 274.425 142.697 274.425Z" fill="#6589D1"/>
<path d="M142.697 280.715H128.73C127.97 280.715 127.353 280.106 127.353 279.354C127.353 278.603 127.97 277.993 128.73 277.993H142.697C143.457 277.993 144.073 278.603 144.073 279.354C144.073 280.107 143.457 280.715 142.697 280.715Z" fill="#6589D1"/>
<path d="M142.697 287.007H128.73C127.97 287.007 127.353 286.397 127.353 285.646C127.353 284.894 127.97 284.285 128.73 284.285H142.697C143.457 284.285 144.073 284.894 144.073 285.646C144.073 286.397 143.457 287.007 142.697 287.007Z" fill="#6589D1"/>
<path d="M142.697 293.297H128.73C127.97 293.297 127.353 292.687 127.353 291.936C127.353 291.184 127.97 290.575 128.73 290.575H142.697C143.457 290.575 144.073 291.184 144.073 291.936C144.073 292.687 143.457 293.297 142.697 293.297Z" fill="#6589D1"/>
<path d="M142.697 299.587H128.73C127.97 299.587 127.353 298.978 127.353 298.226C127.353 297.475 127.97 296.865 128.73 296.865H142.697C143.457 296.865 144.073 297.475 144.073 298.226C144.073 298.979 143.457 299.587 142.697 299.587Z" fill="#6589D1"/>
<path d="M142.697 305.878H128.73C127.97 305.878 127.353 305.269 127.353 304.517C127.353 303.766 127.97 303.156 128.73 303.156H142.697C143.457 303.156 144.073 303.766 144.073 304.517C144.073 305.269 143.457 305.878 142.697 305.878Z" fill="#6589D1"/>
<path d="M208.289 274.425H148.097C147.337 274.425 146.721 273.815 146.721 273.064C146.721 272.312 147.337 271.703 148.097 271.703H208.289C209.049 271.703 209.665 272.312 209.665 273.064C209.666 273.815 209.05 274.425 208.289 274.425Z" fill="#3B5FB7"/>
<path d="M208.289 280.715H148.097C147.337 280.715 146.721 280.106 146.721 279.354C146.721 278.603 147.337 277.993 148.097 277.993H208.289C209.049 277.993 209.665 278.603 209.665 279.354C209.666 280.107 209.05 280.715 208.289 280.715Z" fill="#3B5FB7"/>
<path d="M208.289 287.007H148.097C147.337 287.007 146.721 286.397 146.721 285.646C146.721 284.894 147.337 284.285 148.097 284.285H208.289C209.049 284.285 209.665 284.894 209.665 285.646C209.666 286.397 209.05 287.007 208.289 287.007Z" fill="#3B5FB7"/>
<path d="M208.289 293.297H148.097C147.337 293.297 146.721 292.687 146.721 291.936C146.721 291.184 147.337 290.575 148.097 290.575H208.289C209.049 290.575 209.665 291.184 209.665 291.936C209.666 292.687 209.05 293.297 208.289 293.297Z" fill="#3B5FB7"/>
<path d="M208.289 299.587H148.097C147.337 299.587 146.721 298.978 146.721 298.226C146.721 297.475 147.337 296.865 148.097 296.865H208.289C209.049 296.865 209.665 297.475 209.665 298.226C209.666 298.979 209.05 299.587 208.289 299.587Z" fill="#3B5FB7"/>
<path d="M208.289 305.878H148.097C147.337 305.878 146.721 305.269 146.721 304.517C146.721 303.766 147.337 303.156 148.097 303.156H208.289C209.049 303.156 209.665 303.766 209.665 304.517C209.666 305.269 209.05 305.878 208.289 305.878Z" fill="#3B5FB7"/>
<path d="M630.902 53.4388C635.667 33.769 623.406 14.0031 603.516 9.2904C583.626 4.57774 563.639 16.7029 558.874 36.3727C554.108 56.0425 566.369 75.8084 586.259 80.5211C606.149 85.2337 626.136 73.1086 630.902 53.4388Z" stroke="#DEE3FC" stroke-width="0.89958" stroke-miterlimit="10"/>
<path d="M607.915 74.0583C624.176 66.9436 631.526 48.1396 624.331 32.0585C617.137 15.9774 598.123 8.70873 581.861 15.8235C565.6 22.9382 558.25 41.7421 565.445 57.8232C572.639 73.9043 591.653 81.173 607.915 74.0583Z" fill="#3945BA"/>
<path d="M597.81 44.9188C597.81 46.5198 596.498 47.8166 594.88 47.8166C593.261 47.8166 591.95 46.5187 591.95 44.9188C591.95 43.3178 593.262 42.021 594.88 42.021C596.498 42.0199 597.81 43.3178 597.81 44.9188Z" fill="white"/>
<path d="M594.56 44.3485C594.117 44.5907 593.56 44.433 593.313 43.9947L583.845 27.1048C583.6 26.6665 583.759 26.1155 584.203 25.8722C584.646 25.6299 585.203 25.7877 585.449 26.2248L594.918 43.1147C595.162 43.5541 595.003 44.1062 594.56 44.3485Z" fill="white"/>
<path d="M595.345 45.3781C595.703 45.0243 596.284 45.0243 596.641 45.3781L604.833 53.4789C605.191 53.8327 605.191 54.4073 604.833 54.761C604.475 55.1148 603.894 55.1148 603.536 54.761L595.345 46.6603C594.987 46.3065 594.987 45.7319 595.345 45.3781Z" fill="white"/>
<path d="M595.076 19.4334V15.7717" stroke="white" stroke-width="2.27857" stroke-miterlimit="10" stroke-linecap="round"/>
<path d="M620.649 45.1138H624.352" stroke="white" stroke-width="2.27857" stroke-miterlimit="10" stroke-linecap="round"/>
<path d="M594.682 70.4031V74.0648" stroke="white" stroke-width="2.27857" stroke-miterlimit="10" stroke-linecap="round"/>
<path d="M569.108 44.7236H565.406" stroke="white" stroke-width="2.27857" stroke-miterlimit="10" stroke-linecap="round"/>
<g opacity="0.5">
<path d="M582.165 22.7502L580.313 19.5786" stroke="#DEE3FC" stroke-width="1.13929" stroke-miterlimit="10" stroke-linecap="round"/>
<path d="M617.295 32.3445L620.501 30.5137" stroke="#DEE3FC" stroke-width="1.13929" stroke-miterlimit="10" stroke-linecap="round"/>
<path d="M607.593 67.0852L609.444 70.2568" stroke="#DEE3FC" stroke-width="1.13929" stroke-miterlimit="10" stroke-linecap="round"/>
<path d="M572.464 57.4922L569.257 59.323" stroke="#DEE3FC" stroke-width="1.13929" stroke-miterlimit="10" stroke-linecap="round"/>
</g>
<g opacity="0.5">
<path d="M572.659 32.0066L569.453 30.1758" stroke="#DEE3FC" stroke-width="1.13929" stroke-miterlimit="10" stroke-linecap="round"/>
<path d="M607.935 22.945L609.786 19.7734" stroke="#DEE3FC" stroke-width="1.13929" stroke-miterlimit="10" stroke-linecap="round"/>
<path d="M617.098 57.8293L620.304 59.6602" stroke="#DEE3FC" stroke-width="1.13929" stroke-miterlimit="10" stroke-linecap="round"/>
<path d="M581.824 66.8906L579.972 70.0622" stroke="#DEE3FC" stroke-width="1.13929" stroke-miterlimit="10" stroke-linecap="round"/>
</g>
<path d="M154.879 229.223H114.212C108.191 229.223 103.31 224.396 103.31 218.441V178.225C103.31 172.271 108.191 167.444 114.212 167.444H154.879C160.9 167.444 165.781 172.271 165.781 178.225V218.441C165.781 224.395 160.9 229.223 154.879 229.223Z" fill="#193091"/>
<path d="M152.205 223.871H107.203C102.38 223.871 98.4685 220.004 98.4685 215.233V170.729C98.4685 165.959 102.379 162.091 107.203 162.091H152.205C157.029 162.091 160.94 165.958 160.94 170.729V215.233C160.939 220.003 157.029 223.871 152.205 223.871Z" fill="#7E89FD" stroke="#DEE3FC" stroke-width="1.13929" stroke-miterlimit="10"/>
<path d="M140.521 185.908H140.195V182.369C140.195 176.56 135.418 171.834 129.544 171.834C123.67 171.834 118.893 176.56 118.893 182.369V185.908H118.821C117.17 185.908 115.832 187.232 115.832 188.864V202.201C115.832 203.833 117.17 205.157 118.821 205.157H140.521C142.172 205.157 143.51 203.833 143.51 202.201V188.864C143.51 187.23 142.172 185.908 140.521 185.908ZM121.591 182.369C121.591 178.032 125.16 174.504 129.544 174.504C133.928 174.504 137.497 178.032 137.497 182.369V185.908H121.589L121.591 182.369Z" fill="#DEE3FC"/>
<path d="M133.179 192.762C133.179 190.633 131.222 188.956 128.989 189.396C127.673 189.655 126.582 190.723 126.307 192.021C125.977 193.587 126.725 195.016 127.951 195.725C128.2 195.87 128.342 196.14 128.267 196.415L127.662 198.622C127.303 199.935 128.302 201.226 129.676 201.226C131.051 201.226 132.05 199.935 131.691 198.622L131.093 196.439C131.017 196.16 131.163 195.885 131.417 195.744C132.468 195.153 133.179 194.042 133.179 192.762Z" fill="#7E89FD"/>
<path d="M142.229 209.833H117.114C116.407 209.833 115.833 209.265 115.833 208.565C115.833 207.865 116.407 207.298 117.114 207.298H142.229C142.936 207.298 143.51 207.865 143.51 208.565C143.51 209.266 142.936 209.833 142.229 209.833Z" fill="#DEE3FC"/>
<path d="M142.229 214.129H117.114C116.407 214.129 115.833 213.561 115.833 212.861C115.833 212.162 116.407 211.594 117.114 211.594H142.229C142.936 211.594 143.51 212.162 143.51 212.861C143.51 213.561 142.936 214.129 142.229 214.129Z" fill="#DEE3FC"/>
<path d="M646.954 301.841H623.013C619.468 301.841 616.594 299 616.594 295.494V271.818C616.594 268.313 619.467 265.471 623.013 265.471H646.954C650.498 265.471 653.371 268.313 653.371 271.818V295.494C653.371 299 650.498 301.841 646.954 301.841Z" fill="#193091"/>
<path d="M645.379 298.691H618.886C616.046 298.691 613.745 296.414 613.745 293.607V267.407C613.745 264.598 616.047 262.322 618.886 262.322H645.379C648.219 262.322 650.521 264.599 650.521 267.407V293.607C650.521 296.414 648.219 298.691 645.379 298.691Z" fill="#7E89FD" stroke="#DEE3FC" stroke-width="1.13929" stroke-miterlimit="10"/>
<path d="M624.703 291.366C624.599 291.366 624.495 291.353 624.392 291.324C623.785 291.156 623.433 290.533 623.605 289.934L629.167 270.464C629.338 269.864 629.971 269.513 630.572 269.687C631.178 269.855 631.53 270.478 631.358 271.076L625.796 290.546C625.656 291.043 625.198 291.366 624.703 291.366Z" fill="white"/>
<path d="M634.002 291.366C633.899 291.366 633.795 291.353 633.693 291.324C633.086 291.156 632.734 290.533 632.906 289.934L638.47 270.464C638.639 269.864 639.273 269.513 639.874 269.687C640.48 269.855 640.832 270.478 640.66 271.076L635.097 290.546C634.956 291.043 634.499 291.366 634.002 291.366Z" fill="white"/>
<path d="M641.976 277.22H622.288C621.658 277.22 621.149 276.716 621.149 276.093C621.149 275.47 621.658 274.967 622.288 274.967H641.976C642.606 274.967 643.115 275.47 643.115 276.093C643.115 276.716 642.606 277.22 641.976 277.22Z" fill="white"/>
<path d="M641.976 286.114H622.288C621.658 286.114 621.149 285.61 621.149 284.987C621.149 284.364 621.658 283.861 622.288 283.861H641.976C642.606 283.861 643.115 284.364 643.115 284.987C643.115 285.61 642.606 286.114 641.976 286.114Z" fill="white"/>
<path d="M202.974 186.311H188.735C187.873 186.311 187.174 185.619 187.174 184.768C187.174 183.915 187.874 183.224 188.735 183.224H202.974C203.836 183.224 204.535 183.916 204.535 184.768C204.535 185.619 203.836 186.311 202.974 186.311Z" fill="#F0F4FF"/>
<path d="M217.317 193.165H188.735C187.872 193.165 187.174 192.473 187.174 191.621C187.174 190.769 187.873 190.078 188.735 190.078H217.317C218.179 190.078 218.878 190.77 218.878 191.621C218.878 192.474 218.179 193.165 217.317 193.165Z" fill="#F0F4FF"/>
<path d="M192.11 200.019H188.735C187.872 200.019 187.174 199.329 187.174 198.476C187.174 197.623 187.873 196.932 188.735 196.932H192.11C192.973 196.932 193.671 197.623 193.671 198.476C193.671 199.328 192.973 200.019 192.11 200.019Z" fill="#F0F4FF"/>
<path d="M217.317 200.019H197.415C196.553 200.019 195.854 199.329 195.854 198.476C195.854 197.623 196.554 196.932 197.415 196.932H217.317C218.18 196.932 218.878 197.623 218.878 198.476C218.878 199.328 218.18 200.019 217.317 200.019Z" fill="#F0F4FF"/>
<path d="M217.317 186.311H208.686C207.824 186.311 207.125 185.619 207.125 184.768C207.125 183.915 207.825 183.224 208.686 183.224H217.317C218.18 183.224 218.878 183.916 218.878 184.768C218.878 185.619 218.18 186.311 217.317 186.311Z" fill="#F0F4FF"/>
<path d="M137.021 396.914C135.166 396.914 133.43 397.418 131.944 398.293C131.349 393.036 126.84 388.948 121.365 388.948C115.484 388.948 110.716 393.664 110.716 399.479C110.716 399.869 110.739 400.254 110.781 400.633C110.292 400.543 109.79 400.493 109.275 400.493C104.784 400.493 101.144 404.093 101.144 408.535C101.144 412.976 104.784 416.576 109.275 416.576H137.022C142.512 416.576 146.962 412.175 146.962 406.745C146.962 401.315 142.511 396.914 137.021 396.914Z" fill="white"/>
<path d="M66.4534 354.691C66.1845 353.221 66.2209 351.717 66.5958 350.269C67.8501 345.421 69.2856 336.304 66.0956 326.453C60.774 310.021 39.2051 295.466 39.2051 295.466C39.2051 295.466 45.0599 319.716 49.8733 330.042C53.3972 337.602 59.5618 346.205 62.9831 350.734C63.9321 351.991 64.5827 353.439 64.8652 354.983C68.3526 374.065 67.8478 388.837 67.8387 389.066L69.4577 389.128C69.4656 388.898 69.9783 373.975 66.4534 354.691Z" fill="#DEE3FC"/>
<path d="M83.6514 339.241C87.9362 325.845 89.9289 310.065 89.9289 310.065C89.9289 310.065 70.5895 325.845 69.0047 338.056C68.0341 345.535 69.2406 351.533 70.3229 355.063C70.782 356.561 70.9495 358.128 70.7797 359.686C68.8225 377.655 70.3559 391.425 70.3799 391.636L71.8359 391.47C71.8119 391.268 70.389 378.455 72.0649 361.476C72.2939 359.15 73.2417 356.952 74.7296 355.138C77.497 351.761 81.4537 346.111 83.6514 339.241Z" fill="#B4C1EF"/>
<path d="M103.31 309.442C103.31 309.442 82.4707 317.089 77.0215 333.916C73.705 344.158 75.2715 353.624 76.568 358.527C76.9315 359.903 76.9121 361.339 76.5635 362.72C71.6816 382.084 71.6064 402.128 71.6064 402.394H73.2652C73.2652 402.133 73.3404 382.566 78.0548 363.576C78.523 361.69 79.3547 359.916 80.5259 358.356C84.0805 353.622 90.1289 345.104 93.6311 337.59C98.5619 327.018 103.31 309.442 103.31 309.442Z" fill="#DEE3FC"/>
<path d="M66.54 380.44C66.0217 373.396 64.0803 367.055 61.7277 361.735C61.2572 360.669 61.0908 359.504 61.2412 358.35C61.5329 356.129 61.6525 352.678 60.7547 348.293C59.064 340.036 47.9834 322.201 31.9399 321.156C31.9399 321.156 37.4757 329.956 40.3239 337.32C43.9275 346.636 49.0714 356.381 57.6023 360.121C59.1028 360.779 60.2774 362.011 60.9028 363.51C62.9593 368.44 64.6101 374.198 65.0772 380.545L66.54 380.44Z" fill="#B4C1EF"/>
<path d="M55.693 416.571H82.1677L89.0365 375.058C89.3407 373.221 87.9063 371.552 86.0242 371.552H51.8365C49.9544 371.552 48.5201 373.221 48.8243 375.058L55.693 416.571Z" fill="#DEE3FC"/>
<path d="M1.34009 416.571H742.126" stroke="white" stroke-width="1.26962" stroke-miterlimit="10" stroke-linecap="round"/>
</svg>
