<svg width="38" height="38" viewBox="0 0 38 38" fill="none" xmlns="http://www.w3.org/2000/svg">
<g clip-path="url(#clip0_249_13562)">
<path d="M37.2209 27.7519C37.0409 27.4115 36.8139 27.0723 36.5439 26.7311C35.9284 25.9534 35.0913 25.1662 34.0817 24.3681C33.3773 23.8112 32.6285 23.2805 31.8802 22.791C31.4302 22.4966 31.0766 22.2791 30.866 22.1557C29.0888 21.1438 27.0412 21.2779 25.9838 22.982C25.9347 23.0404 25.8723 23.1143 25.7995 23.1999C25.6004 23.434 25.3984 23.6678 25.2069 23.8846C25.1655 23.9314 25.1655 23.9314 25.1243 23.9778C24.8064 24.335 24.5154 24.6355 24.5261 24.6282C23.3556 25.4204 22.5937 25.358 21.5618 24.3261L14.1072 16.8715C13.0753 15.8396 13.0129 15.0777 13.8056 13.9066C13.7979 13.9179 14.0984 13.6269 14.4555 13.309C14.502 13.2677 14.502 13.2677 14.5487 13.2264C14.7655 13.0349 14.9993 12.8328 15.2334 12.6338C15.3191 12.561 15.3929 12.4985 15.4513 12.4495C17.1554 11.392 17.2898 9.34494 16.2872 7.58386C16.1543 7.35672 15.9367 7.0032 15.6423 6.55309C15.1529 5.80482 14.6222 5.05598 14.0653 4.35159C13.2672 3.34194 12.48 2.50491 11.7023 1.88942C11.361 1.61934 11.0217 1.39235 10.681 1.21211C9.09557 0.374077 7.15173 0.665844 5.88284 1.93237L4.23594 3.58078C-1.22734 9.04405 0.278387 15.5549 6.80704 22.0836L11.5774 26.8554L16.3498 31.6263C22.8783 38.1548 29.3892 39.6606 34.8529 34.1968L36.4988 32.5494C37.7669 31.2837 38.0599 29.3367 37.2209 27.7519ZM34.3328 30.3823L32.6859 32.0308C28.6889 36.0277 23.9998 34.9433 18.5161 29.4596L13.7439 24.689L8.97371 19.9173C3.48983 14.4334 2.40542 9.74435 6.40289 5.74687L8.04872 4.09954C8.36526 3.78357 8.85113 3.71068 9.2486 3.9208C9.41204 4.00726 9.59803 4.13171 9.80068 4.29206C10.3625 4.73664 10.9981 5.41266 11.6615 6.25184C12.1561 6.87746 12.6353 7.55377 13.0781 8.23051C13.343 8.63552 13.5346 8.94696 13.6339 9.11644C13.9103 9.60216 13.8933 9.81444 13.8118 9.86025L13.5808 10.0195C13.513 10.076 13.3969 10.1736 13.2482 10.3C13.0006 10.5107 12.7527 10.7248 12.5198 10.9305C12.4689 10.9755 12.4689 10.9755 12.418 11.0208C11.8119 11.5604 11.4697 11.8916 11.2683 12.1888C9.6618 14.5626 9.85762 16.9553 11.9405 19.0382L19.395 26.4927C21.4779 28.5756 23.8706 28.7715 26.2438 27.1654C26.5416 26.9636 26.8728 26.6214 27.4124 26.0153C27.4577 25.9644 27.4577 25.9644 27.5027 25.9135C27.7084 25.6806 27.9226 25.4327 28.1332 25.1851C28.2596 25.0365 28.3572 24.9204 28.4138 24.8525L28.573 24.6215C28.6187 24.54 28.831 24.523 29.3334 24.809C29.4862 24.8987 29.7977 25.0903 30.2027 25.3552C30.8795 25.798 31.5558 26.2772 32.1814 26.7719C33.0206 27.4352 33.6966 28.0709 34.1411 28.6327C34.3015 28.8353 34.4259 29.0213 34.5126 29.1851C34.7225 29.5809 34.6493 30.0664 34.3328 30.3823Z" fill="white"/>
<path d="M26.9713 19.1203C30.2561 19.1203 33.0991 17.2252 33.0991 14.5245V5.82592C34.0628 7.27656 34.6311 9.12734 34.6311 11.4605C34.6311 12.3066 35.3169 12.9925 36.163 12.9925C37.0091 12.9925 37.6949 12.3066 37.6949 11.4605C37.6949 8.09025 36.7111 5.38472 35.0613 3.32246C34.0476 2.05529 33.0114 1.27809 32.2523 0.898567C31.2337 0.389287 30.0353 1.12994 30.0353 2.26878V10.5268C29.1238 10.1419 28.0725 9.9286 26.9713 9.9286C23.6865 9.9286 20.8435 11.8238 20.8435 14.5245C20.8435 17.2252 23.6865 19.1203 26.9713 19.1203ZM26.9713 12.9925C28.7639 12.9925 30.0353 13.8399 30.0353 14.5244C30.0353 15.2089 28.764 16.0563 26.9713 16.0563C25.1786 16.0563 23.9074 15.2089 23.9074 14.5244C23.9074 13.8399 25.1787 12.9925 26.9713 12.9925Z" fill="white"/>
</g>
<defs>
<clipPath id="clip0_249_13562">
<rect width="36.8018" height="36.8018" fill="white" transform="translate(0.894531 0.734863)"/>
</clipPath>
</defs>
</svg>
