<svg width="37" height="38" viewBox="0 0 37 38" fill="none" xmlns="http://www.w3.org/2000/svg">
<path d="M14.6146 14.0358V23.2362M10.0144 18.636H19.2148M24.5817 15.5692L28.533 13.1984C29.7492 12.4687 30.3573 12.1038 30.8577 12.1505C31.2939 12.1911 31.692 12.4165 31.9513 12.7697C32.2488 13.1747 32.2488 13.8839 32.2488 15.3022V21.9698C32.2488 23.388 32.2488 24.0972 31.9513 24.5023C31.692 24.8555 31.2939 25.0809 30.8577 25.1215C30.3573 25.1681 29.7492 24.8033 28.533 24.0736L24.5817 21.7028M9.55436 27.8364H19.6748C21.3924 27.8364 22.2513 27.8364 22.9073 27.5021C23.4843 27.2082 23.9535 26.739 24.2475 26.1619C24.5817 25.506 24.5817 24.6471 24.5817 22.9295V14.3424C24.5817 12.6249 24.5817 11.7661 24.2475 11.1101C23.9535 10.533 23.4843 10.0638 22.9073 9.76981C22.2513 9.43555 21.3924 9.43555 19.6748 9.43555H9.55436C7.83679 9.43555 6.97799 9.43555 6.32197 9.76981C5.7449 10.0638 5.27574 10.533 4.98173 11.1101C4.64746 11.7661 4.64746 12.6249 4.64746 14.3424V22.9295C4.64746 24.6471 4.64746 25.506 4.98173 26.1619C5.27574 26.739 5.7449 27.2082 6.32197 27.5021C6.97799 27.8364 7.83678 27.8364 9.55436 27.8364Z" stroke="white" stroke-width="3.06681" stroke-linecap="round" stroke-linejoin="round"/>
</svg>
