<svg width="38" height="38" viewBox="0 0 38 38" fill="none" xmlns="http://www.w3.org/2000/svg">
<path d="M31.4948 8.08679H7.2056C6.46035 8.08679 5.8562 8.69095 5.8562 9.4362V29.1959C5.8562 29.9412 6.46035 30.5453 7.2056 30.5453H31.4948C32.24 30.5453 32.8442 29.9412 32.8442 29.1959V9.4362C32.8442 8.69095 32.24 8.08679 31.4948 8.08679Z" stroke="white" stroke-width="2.45345"/>
<path d="M26.7105 16.6737C28.0655 16.6737 29.164 15.5753 29.164 14.2203C29.164 12.8653 28.0655 11.7668 26.7105 11.7668C25.3555 11.7668 24.2571 12.8653 24.2571 14.2203C24.2571 15.5753 25.3555 16.6737 26.7105 16.6737Z" fill="white"/>
<path d="M9.53638 26.4876L12.882 21.4691L16.2276 24.8147L21.246 18.1235L27.9373 26.4876H9.53638Z" fill="white"/>
</svg>
